<svg xmlns="http://www.w3.org/2000/svg" width="126.02" height="57.83" viewBox="0 0 126.02 57.83"><path d="M-4543.336-864.17a2,2,0,0,1-1.467-.538,2.013,2.013,0,0,1-.533-1.492v-2.622h.778v2.6a1.461,1.461,0,0,0,.316,1.018,1.185,1.185,0,0,0,.918.346,1.173,1.173,0,0,0,.917-.346,1.457,1.457,0,0,0,.318-1.018v-2.6h.767v2.628a2.021,2.021,0,0,1-.533,1.492,1.988,1.988,0,0,1-1.474.532Zm-7.663-.313a2.265,2.265,0,0,1-.9-.842,2.417,2.417,0,0,1,0-2.413,2.265,2.265,0,0,1,.9-.842,2.81,2.81,0,0,1,2.554,0,2.322,2.322,0,0,1,.953,3.142,2.313,2.313,0,0,1-.953.954,2.813,2.813,0,0,1-1.277.307A2.806,2.806,0,0,1-4551-864.484Zm.4-3.51a1.605,1.605,0,0,0-.611.6,1.779,1.779,0,0,0,0,1.725,1.6,1.6,0,0,0,.611.6,1.854,1.854,0,0,0,1.743,0,1.6,1.6,0,0,0,.61-.6,1.792,1.792,0,0,0,0-1.725,1.6,1.6,0,0,0-.61-.6,1.858,1.858,0,0,0-.871-.217A1.859,1.859,0,0,0-4550.6-867.993Zm-12.363,3.51a2.313,2.313,0,0,1-.985-3.118,2.312,2.312,0,0,1,.842-.9c.043-.028.086-.051.131-.075a2.63,2.63,0,0,1,1.273-.3,2.34,2.34,0,0,1,1.848.717l-.5.505a1.765,1.765,0,0,0-1.331-.548,1.793,1.793,0,0,0-.884.214,1.563,1.563,0,0,0-.611.6,1.8,1.8,0,0,0,0,1.725,1.557,1.557,0,0,0,.623.6,1.844,1.844,0,0,0,.9.218,1.887,1.887,0,0,0,1-.257v-1.45h.756v1.792a2.309,2.309,0,0,1-.8.436,3.156,3.156,0,0,1-.967.152h-.05A2.714,2.714,0,0,1-4562.958-864.484Zm23.963.244v-4.582h1.872a2.219,2.219,0,0,1,1.437.427,1.454,1.454,0,0,1,.524,1.187,1.461,1.461,0,0,1-.524,1.194,2.225,2.225,0,0,1-1.437.43h-1.09v1.344Zm.782-2h1.04a1.418,1.418,0,0,0,.909-.257h0a.986.986,0,0,0,.043-1.392l-.043-.044a1.426,1.426,0,0,0-.909-.244h-1.04Zm-17.377.625a1.819,1.819,0,0,1-.211.008h-1.088v1.362h-.783v-4.582h1.869a2.211,2.211,0,0,1,1.436.426,1.447,1.447,0,0,1,.519,1.187,1.5,1.5,0,0,1-.262.895,1.566,1.566,0,0,1-.746.557l1.089,1.516-.846,0Zm-1.307-.626h1.042a1.446,1.446,0,0,0,.908-.256.986.986,0,0,0,.043-1.392l-.043-.044a1.425,1.425,0,0,0-.908-.244h-1.042Zm-15.888-10.361a9.485,9.485,0,0,1-3.2-2.262,9.836,9.836,0,0,1-1.978-3.2,10.265,10.265,0,0,1-.672-3.665,10.387,10.387,0,0,1,1.4-5.266,10.453,10.453,0,0,1,3.783-3.85,9.965,9.965,0,0,1,5.181-1.417,14.464,14.464,0,0,1,3.678.515l1.372.382a3.524,3.524,0,0,0,.671.08,1.094,1.094,0,0,0,.687-.152,1.045,1.045,0,0,0,.263-.547h.21l-.184,4.641h-.225a4.156,4.156,0,0,0-1.338-2.413,6.754,6.754,0,0,0-2.5-1.443,8.632,8.632,0,0,0-2.637-.455,7.185,7.185,0,0,0-3.145.705,7.46,7.46,0,0,0-2.537,1.99,9.335,9.335,0,0,0-1.662,3.085,12.417,12.417,0,0,0-.593,3.909,12.109,12.109,0,0,0,.573,3.79,8.837,8.837,0,0,0,1.675,3.033,7.334,7.334,0,0,0,2.551,1.945,7.681,7.681,0,0,0,3.217.658,10.188,10.188,0,0,0,3.243-.6,8.376,8.376,0,0,0,3.19-2v.751a15.452,15.452,0,0,1-3.21,1.99,9.136,9.136,0,0,1-3.633.634A10.239,10.239,0,0,1-4572.784-876.6Zm-69.082-.152a6.379,6.379,0,0,1-2.433-2.438,6.176,6.176,0,0,1-.7-2.143,18.015,18.015,0,0,1-.145-2.314v-9.664a2.839,2.839,0,0,0-.349-1.463q-.351-.593-1.667-.7v-.225h6.1v.225a2.184,2.184,0,0,0-1.713.778,2.648,2.648,0,0,0-.37,1.384v9.506a11.55,11.55,0,0,0,.593,4.285,5.086,5.086,0,0,0,1.9,2.307,5.128,5.128,0,0,0,2.875.83,6.566,6.566,0,0,0,1.6-.237,5.393,5.393,0,0,0,1.728-.792q2.412-1.647,2.413-5.286v-10.613a2.732,2.732,0,0,0-.37-1.423q-.368-.619-1.74-.738v-.225h6.209v.225q-1.344.065-1.726.751a2.82,2.82,0,0,0-.383,1.385v14.712a2.408,2.408,0,0,0,.256,1.207,1.429,1.429,0,0,0,.712.626,5.724,5.724,0,0,0,1.114.3v.211h-4.073v-3.217l-.067-.053a5.69,5.69,0,0,1-2.523,2.875,7.3,7.3,0,0,1-3.515.91A7.114,7.114,0,0,1-4641.866-876.748Zm98.988.653a11.029,11.029,0,0,1-1.871-.718,2.157,2.157,0,0,0-.541-.132.355.355,0,0,0-.364.2,6.1,6.1,0,0,0-.23.857h-.223v-4.865h.223a5.49,5.49,0,0,0,1.846,3.23,5.182,5.182,0,0,0,3.336,1.095,4.437,4.437,0,0,0,2.366-.554,3.009,3.009,0,0,0,1.232-1.345,3.959,3.959,0,0,0,.343-1.581,3.694,3.694,0,0,0-1-2.67,12.186,12.186,0,0,0-3.026-2.116q-1.4-.765-2.07-1.187a8.286,8.286,0,0,1-1.364-1.095,5.061,5.061,0,0,1-1.1-1.588,5.115,5.115,0,0,1-.408-2.1,5.149,5.149,0,0,1,.725-2.623,5.409,5.409,0,0,1,2.056-2.01,5.985,5.985,0,0,1,3.02-.759,8.5,8.5,0,0,1,2.623.435,1.266,1.266,0,0,0,.567.106q.435,0,.593-.594h.21v4.153h-.21a4.216,4.216,0,0,0-1.232-2.471,3.71,3.71,0,0,0-2.763-1.062,3.758,3.758,0,0,0-1.99.527,3.6,3.6,0,0,0-1.345,1.437,4.446,4.446,0,0,0-.475,2.083,4.3,4.3,0,0,0,.284,1.615,3.587,3.587,0,0,0,.837,1.245,7.527,7.527,0,0,0,1.305,1.008q.751.468,2.03,1.18a15.185,15.185,0,0,1,3.321,2.34,4.277,4.277,0,0,1,1.187,3.2,4.881,4.881,0,0,1-.64,2.393,4.944,4.944,0,0,1-1.931,1.892,6.391,6.391,0,0,1-3.2.738A7.921,7.921,0,0,1-4542.877-876.1Zm-113.893,0a11.038,11.038,0,0,1-1.872-.718,2.129,2.129,0,0,0-.541-.132.352.352,0,0,0-.362.2,5.7,5.7,0,0,0-.23.857H-4660v-4.865h.225a5.477,5.477,0,0,0,1.845,3.23,5.177,5.177,0,0,0,3.335,1.095,4.432,4.432,0,0,0,2.366-.554A3,3,0,0,0-4651-878.33a3.935,3.935,0,0,0,.343-1.581,3.69,3.69,0,0,0-1-2.67,12.14,12.14,0,0,0-3.026-2.116q-1.4-.765-2.07-1.187a8.331,8.331,0,0,1-1.365-1.095,5.075,5.075,0,0,1-1.1-1.588,5.115,5.115,0,0,1-.408-2.1,5.164,5.164,0,0,1,.725-2.623,5.409,5.409,0,0,1,2.056-2.01,5.988,5.988,0,0,1,3.02-.759,8.49,8.49,0,0,1,2.623.435,1.266,1.266,0,0,0,.567.106q.435,0,.593-.594h.212v4.153h-.212a4.221,4.221,0,0,0-1.232-2.471,3.706,3.706,0,0,0-2.761-1.062,3.762,3.762,0,0,0-1.992.527,3.584,3.584,0,0,0-1.344,1.437,4.429,4.429,0,0,0-.475,2.083,4.327,4.327,0,0,0,.283,1.615,3.6,3.6,0,0,0,.837,1.245,7.64,7.64,0,0,0,1.305,1.008q.751.468,2.03,1.18a15.235,15.235,0,0,1,3.323,2.34,4.282,4.282,0,0,1,1.186,3.2,4.87,4.87,0,0,1-.64,2.393,4.931,4.931,0,0,1-1.931,1.892,6.385,6.385,0,0,1-3.2.738A7.912,7.912,0,0,1-4656.77-876.1Zm97.07-.178v-.211h.264a1.87,1.87,0,0,0,1.213-.5,2.027,2.027,0,0,0,.593-1.635v-14.633a2.943,2.943,0,0,0-.4-1.557,1.514,1.514,0,0,0-1.4-.658h-.264v-.225h11.576v3.058h-.185q0-2.451-3.27-2.451h-4.046v8.819h3.559a4.908,4.908,0,0,0,1.885-.343,1.7,1.7,0,0,0,.95-1.568h.2v4.4h-.2a2.39,2.39,0,0,0-.448-1.154,1.744,1.744,0,0,0-.653-.533,1.556,1.556,0,0,0-.574-.132,6.01,6.01,0,0,0-.988-.08h-3.73v6.9a2.866,2.866,0,0,0,.3,1.345q.3.567,1.377.567h2.888a4.187,4.187,0,0,0,1.714-.3,2.578,2.578,0,0,0,1.061-.843,5,5,0,0,0,.653-1.305h.185l-.672,3.045Zm-25.5,0v-.211a4.766,4.766,0,0,0,1.5-.185q.528-.186.527-1a4.063,4.063,0,0,0-.25-1.2.4.4,0,0,1-.053-.158l-1.728-5.155h-6.723l-1.543,4.773a5.373,5.373,0,0,0-.317,1.568,1.22,1.22,0,0,0,.41,1.088,2.1,2.1,0,0,0,1.16.271v.211h-4.562v-.211a2.309,2.309,0,0,0,1.563-.745,5.577,5.577,0,0,0,1.022-1.985l5.484-16.717h1.425l5.813,16.637a8.258,8.258,0,0,0,.87,1.872,1.971,1.971,0,0,0,.785.732,3.465,3.465,0,0,0,.956.2v.211Zm-6.5-8.609h6.183l-3.164-9.216h-.052Zm-16.7,8.609v-.211h.263a1.673,1.673,0,0,0,1.312-.594,2.253,2.253,0,0,0,.521-1.543v-14.687a2.094,2.094,0,0,0-.567-1.706,1.967,1.967,0,0,0-1.265-.455h-.263v-.225h11.654v2.953h-.21a2.928,2.928,0,0,0-.667-1.628,2.459,2.459,0,0,0-2.01-.718h-4.667v8.794h4.351a2.207,2.207,0,0,0,1.688-.508,2.673,2.673,0,0,0,.58-1.4h.21v4.4h-.21a2.349,2.349,0,0,0-.548-1.365,2.221,2.221,0,0,0-1.719-.533h-4.351v7.079a2.164,2.164,0,0,0,.553,1.55,1.769,1.769,0,0,0,1.332.587h.276v.211Zm-4.641,0c-.15-.193-.29-.38-.422-.56s-.272-.372-.422-.574q-.131-.2-.388-.6a4.892,4.892,0,0,0-.31-.454l-2.32-3.837a9.755,9.755,0,0,0-1.431-1.905,5.484,5.484,0,0,0-1.365-1.048,3.991,3.991,0,0,0-1.14-.4,7.87,7.87,0,0,0-1.193-.08v7.106a1.913,1.913,0,0,0,2.108,2.137v.211h-6.183v-.211a3,3,0,0,0,1.029-.218,1.636,1.636,0,0,0,.744-.66,2.325,2.325,0,0,0,.3-1.26v-14.687a2.026,2.026,0,0,0-.567-1.634,1.886,1.886,0,0,0-1.239-.475h-.264v-.277h6.724a6.764,6.764,0,0,1,2.75.5,4.632,4.632,0,0,1,1.753,1.272,4.96,4.96,0,0,1,.9,1.628,5.6,5.6,0,0,1,.27,1.688,4.821,4.821,0,0,1-.442,2.024,4.359,4.359,0,0,1-1.358,1.668,5.262,5.262,0,0,1-2.288.948v.053a8.122,8.122,0,0,1,3.218,3.349l1.753,2.966a9.3,9.3,0,0,0,1.905,2.518,2.864,2.864,0,0,0,1.417.594v.211Zm-8.991-18.787v8.82h1.107a6.984,6.984,0,0,0,2.854-.5,3.284,3.284,0,0,0,1.615-1.43,4.734,4.734,0,0,0,.5-2.274,5.64,5.64,0,0,0-.448-2.2,4.064,4.064,0,0,0-1.523-1.807,5.064,5.064,0,0,0-2.893-.731A5.166,5.166,0,0,0-4622.031-895.06Zm-31.193-5.548a9.812,9.812,0,0,1-3.315-2.345,10.232,10.232,0,0,1-2.051-3.323,10.677,10.677,0,0,1-.7-3.8,10.782,10.782,0,0,1,1.449-5.462,10.852,10.852,0,0,1,3.924-3.992,10.338,10.338,0,0,1,5.374-1.47,14.983,14.983,0,0,1,3.813.533l1.422.4a3.628,3.628,0,0,0,.7.082,1.133,1.133,0,0,0,.711-.157,1.08,1.08,0,0,0,.274-.568h.219l-.192,4.813h-.231a4.317,4.317,0,0,0-1.388-2.5,7.007,7.007,0,0,0-2.591-1.5,8.929,8.929,0,0,0-2.734-.471,7.433,7.433,0,0,0-3.261.731,7.76,7.76,0,0,0-2.633,2.064,9.717,9.717,0,0,0-1.723,3.2,12.9,12.9,0,0,0-.615,4.054,12.535,12.535,0,0,0,.6,3.931,9.165,9.165,0,0,0,1.735,3.145,7.611,7.611,0,0,0,2.646,2.016,7.97,7.97,0,0,0,3.336.684,10.555,10.555,0,0,0,3.364-.622,8.687,8.687,0,0,0,3.309-2.071v.779a16.042,16.042,0,0,1-3.33,2.064,9.479,9.479,0,0,1-3.767.656A10.605,10.605,0,0,1-4653.224-900.608Zm13.569.334v-.219h.273a1.8,1.8,0,0,0,1.319-.553,2.254,2.254,0,0,0,.554-1.661v-15.2a2.481,2.481,0,0,0-.513-1.675,1.737,1.737,0,0,0-1.387-.6h-.247v-.232h6.576a7.32,7.32,0,0,1,2.393.375,5.467,5.467,0,0,1,1.853,1.04,4.761,4.761,0,0,1,1.169,1.5,4.106,4.106,0,0,1,.411,1.826,3.922,3.922,0,0,1-1.176,2.953,7.106,7.106,0,0,1-3.158,1.668v.055a14.8,14.8,0,0,1,1.735.288,6.471,6.471,0,0,1,1.5.533,5.529,5.529,0,0,1,1.258.888,5.3,5.3,0,0,1,.9,1.081,4.773,4.773,0,0,1,.562,1.278,5.282,5.282,0,0,1,.19,1.415,4.523,4.523,0,0,1-.812,2.707,5.894,5.894,0,0,1-1.84,1.723,8.42,8.42,0,0,1-4.033.806Zm4.226-3.021a4.365,4.365,0,0,0,.143,1.209,1.5,1.5,0,0,0,.787.841,4.239,4.239,0,0,0,1.982.356,4.319,4.319,0,0,0,3.95-1.845,5.219,5.219,0,0,0,.807-2.857,5.166,5.166,0,0,0-.4-2.078,4.352,4.352,0,0,0-1.108-1.552,5.04,5.04,0,0,0-1.771-.978,7.327,7.327,0,0,0-2.324-.356h-2.064Zm0-16.187v8.312h1.312a5.755,5.755,0,0,0,2.3-.327,5.063,5.063,0,0,0,.909-.6,3.831,3.831,0,0,0,.9-1.2,4.227,4.227,0,0,0,.431-1.983,5.144,5.144,0,0,0-.287-1.716,4.438,4.438,0,0,0-.834-1.442,3.929,3.929,0,0,0-1.3-.985,3.8,3.8,0,0,0-1.641-.356A6.357,6.357,0,0,0-4635.43-919.482Z" transform="translate(4660.5 921.5)" stroke="rgba(0,0,0,0)" stroke-miterlimit="10" stroke-width="1"/></svg>