<svg xmlns="http://www.w3.org/2000/svg" xmlns:xlink="http://www.w3.org/1999/xlink" width="222.015" height="36.368" viewBox="0 0 222.015 36.368"><defs><clipPath id="a"><rect width="222.015" height="36.368" fill="#fff"/></clipPath></defs><g clip-path="url(#a)"><path d="M18.043,5.2h-.235a4.387,4.387,0,0,0-1.416-2.551,7.107,7.107,0,0,0-2.644-1.527A9.1,9.1,0,0,0,10.956.651,7.6,7.6,0,0,0,7.631,1.4,7.937,7.937,0,0,0,4.946,3.5,9.832,9.832,0,0,0,3.19,6.767,13.141,13.141,0,0,0,2.562,10.9a12.745,12.745,0,0,0,.606,4.012,9.447,9.447,0,0,0,1.772,3.21,7.776,7.776,0,0,0,2.7,2.06,8.132,8.132,0,0,0,3.4.708,10.85,10.85,0,0,0,3.432-.633,8.859,8.859,0,0,0,3.372-2.125v.795a16.167,16.167,0,0,1-3.4,2.109,9.747,9.747,0,0,1-3.841.668,10.8,10.8,0,0,1-4.427-.886A10.01,10.01,0,0,1,2.8,18.432a10.438,10.438,0,0,1-2.091-3.39A10.865,10.865,0,0,1,0,11.165,11.231,11.231,0,0,1,5.477,1.5,10.532,10.532,0,0,1,10.956,0a15.386,15.386,0,0,1,3.894.542L16.3.948a3.627,3.627,0,0,0,.708.082,1.164,1.164,0,0,0,.728-.158,1.1,1.1,0,0,0,.278-.579h.235Z" transform="translate(0 0)" fill="#fff"/><path d="M16.7,20.816H9.018V20.58H9.3a1.844,1.844,0,0,0,1.345-.564,2.3,2.3,0,0,0,.564-1.694V2.824a2.536,2.536,0,0,0-.522-1.707A1.784,1.784,0,0,0,9.269.51H9.018V.268h6.709a7.362,7.362,0,0,1,2.442.389,5.625,5.625,0,0,1,1.889,1.057,4.985,4.985,0,0,1,1.192,1.534,4.239,4.239,0,0,1,.417,1.865,3.994,3.994,0,0,1-1.2,3.013,7.25,7.25,0,0,1-3.224,1.7v.058a14.445,14.445,0,0,1,1.772.291,6.752,6.752,0,0,1,1.534.544,5.831,5.831,0,0,1,1.283.906,5.481,5.481,0,0,1,.921,1.1,4.838,4.838,0,0,1,.571,1.3,5.384,5.384,0,0,1,.2,1.443,4.609,4.609,0,0,1-.828,2.762,6.007,6.007,0,0,1-1.876,1.756,8.537,8.537,0,0,1-4.114.824M13.33,9.708h1.337a5.871,5.871,0,0,0,2.344-.333,5.2,5.2,0,0,0,.924-.611,3.915,3.915,0,0,0,.924-1.228,4.362,4.362,0,0,0,.435-2.023A5.159,5.159,0,0,0,19,3.765a4.485,4.485,0,0,0-.85-1.472,4,4,0,0,0-1.325-1A3.817,3.817,0,0,0,15.152.925a6.535,6.535,0,0,0-1.825.306Zm2.1.628h-2.1v7.4a4.547,4.547,0,0,0,.144,1.234,1.534,1.534,0,0,0,.8.857,4.425,4.425,0,0,0,2.023.364A4.4,4.4,0,0,0,20.33,18.3a5.6,5.6,0,0,0,.411-5.035,4.4,4.4,0,0,0-1.13-1.583,5.218,5.218,0,0,0-1.8-1,7.4,7.4,0,0,0-2.371-.357Z" transform="translate(11.003 0.327)" fill="#fff"/><path d="M32.967,4.49h-.222a3.9,3.9,0,0,0-1.31-2.36,4.176,4.176,0,0,0-2.928-1.017,4.32,4.32,0,0,0-2.107.5,3.629,3.629,0,0,0-1.416,1.379,3.924,3.924,0,0,0-.5,2,3.754,3.754,0,0,0,.3,1.55,3.435,3.435,0,0,0,.888,1.194,7.966,7.966,0,0,0,1.385.964c.531.3,1.25.677,2.151,1.132a16.242,16.242,0,0,1,3.528,2.245,3.9,3.9,0,0,1,1.257,3.068,4.33,4.33,0,0,1-.677,2.293,5.032,5.032,0,0,1-2.051,1.814,7.363,7.363,0,0,1-3.4.708,9.269,9.269,0,0,1-2.253-.238,12.56,12.56,0,0,1-1.985-.686,2.3,2.3,0,0,0-.573-.127.38.38,0,0,0-.384.189,5.267,5.267,0,0,0-.238.821H22.2v-4.68h.235a5.166,5.166,0,0,0,1.958,3.095,5.869,5.869,0,0,0,3.539,1.048,5.133,5.133,0,0,0,2.511-.528,3.026,3.026,0,0,0,1.308-1.288,3.475,3.475,0,0,0,.364-1.519,3.346,3.346,0,0,0-1.055-2.558,13.461,13.461,0,0,0-3.244-2.029q-1.482-.733-2.2-1.137a8.831,8.831,0,0,1-1.445-1.05,4.775,4.775,0,0,1-1.168-1.523,4.483,4.483,0,0,1-.435-2.016,4.614,4.614,0,0,1,.759-2.513,5.509,5.509,0,0,1,2.182-1.927,6.913,6.913,0,0,1,3.2-.726A10.016,10.016,0,0,1,31.5.975a1.463,1.463,0,0,0,.6.1c.306,0,.517-.189.631-.571h.222Z" transform="translate(27.086 0.618)" fill="#fff"/><path d="M51.273,19.19H46.942V16.108l-.073-.053a5.666,5.666,0,0,1-2.677,2.755,8.356,8.356,0,0,1-3.725.873,8.164,8.164,0,0,1-3.954-.944A6.486,6.486,0,0,1,33.93,16.4a5.516,5.516,0,0,1-.739-2.054,15.453,15.453,0,0,1-.155-2.218V2.863a2.475,2.475,0,0,0-.371-1.4c-.235-.38-.837-.6-1.765-.67v-.2h6.474V.8a2.444,2.444,0,0,0-1.821.744,2.37,2.37,0,0,0-.391,1.328v9.111a10.056,10.056,0,0,0,.633,4.107A5,5,0,0,0,37.806,18.3a5.856,5.856,0,0,0,3.048.8,7.789,7.789,0,0,0,1.694-.238,6.024,6.024,0,0,0,1.834-.757,5.517,5.517,0,0,0,2.56-5.073V2.863A2.441,2.441,0,0,0,46.549,1.5c-.262-.4-.877-.631-1.849-.708v-.2h6.589V.8a2.2,2.2,0,0,0-1.834.708,2.53,2.53,0,0,0-.391,1.325v14.1a2.1,2.1,0,0,0,.273,1.157,1.5,1.5,0,0,0,.753.6,6.534,6.534,0,0,0,1.183.291Z" transform="translate(37.701 0.716)" fill="#fff"/><path d="M43.821.958h-.275V.7h7.129a7.813,7.813,0,0,1,2.917.471,4.872,4.872,0,0,1,1.86,1.219A4.568,4.568,0,0,1,56.4,3.946a4.844,4.844,0,0,1,.286,1.618,4.222,4.222,0,0,1-1.909,3.541,5.938,5.938,0,0,1-2.427.908v.051a8.2,8.2,0,0,1,3.412,3.208l1.863,2.833a9.159,9.159,0,0,0,2.018,2.416,3.242,3.242,0,0,0,1.5.568v.2H57.4c-.158-.184-.306-.364-.446-.535l-.446-.551c-.093-.124-.235-.315-.413-.573a3.965,3.965,0,0,0-.331-.437l-2.46-3.661a9.588,9.588,0,0,0-1.519-1.827,5.824,5.824,0,0,0-1.448-1,4.5,4.5,0,0,0-1.208-.38,9.3,9.3,0,0,0-1.268-.075v6.811q0,1.985,2.238,2.047v.2H43.546v-.2a3.4,3.4,0,0,0,1.092-.209,1.724,1.724,0,0,0,.79-.631,2.068,2.068,0,0,0,.313-1.208V2.981a1.837,1.837,0,0,0-.6-1.565A2.106,2.106,0,0,0,43.821.958m4.043,8.8h1.181a8.128,8.128,0,0,0,3.028-.473,3.385,3.385,0,0,0,1.712-1.37,4.193,4.193,0,0,0,.533-2.182,5,5,0,0,0-.473-2.1,4.027,4.027,0,0,0-1.614-1.732A7.1,7.1,0,0,0,47.875,1.3Z" transform="translate(53.133 0.844)" fill="#fff"/><path d="M54.586.906V.693H66.95V3.526h-.222a2.69,2.69,0,0,0-.708-1.563A2.771,2.771,0,0,0,63.9,1.275H58.937V9.7h4.616a2.57,2.57,0,0,0,1.792-.471,2.44,2.44,0,0,0,.608-1.361h.235v4.223h-.235a2.147,2.147,0,0,0-.579-1.31,2.543,2.543,0,0,0-1.827-.511H58.935v6.787a1.966,1.966,0,0,0,1.88,2.045h.417v.2H54.586v-.2h.273a1.856,1.856,0,0,0,1.392-.568,2.048,2.048,0,0,0,.551-1.479V2.978a1.9,1.9,0,0,0-.6-1.634A2.238,2.238,0,0,0,54.859.906Z" transform="translate(66.603 0.845)" fill="#fff"/><path d="M72.795.642l6.17,15.947a7.616,7.616,0,0,0,.921,1.794,2.042,2.042,0,0,0,.833.708,3.966,3.966,0,0,0,1.017.2v.2H75v-.2a5.6,5.6,0,0,0,1.6-.178c.373-.118.559-.44.559-.961A3.6,3.6,0,0,0,76.893,17a.3.3,0,0,1-.053-.151L75,11.907H67.873l-1.636,4.574a4.764,4.764,0,0,0-.337,1.507,1.121,1.121,0,0,0,.433,1.041,2.445,2.445,0,0,0,1.232.26v.2h-4.84v-.2a2.57,2.57,0,0,0,1.652-.708,5.2,5.2,0,0,0,1.083-1.889L71.278.666ZM68.11,11.232h6.563L71.314,2.409h-.058Z" transform="translate(76.533 0.783)" fill="#fff"/><path d="M92.07,5.178h-.235a3.9,3.9,0,0,0-1.416-2.313,7.378,7.378,0,0,0-2.651-1.383,10.051,10.051,0,0,0-2.8-.437,8.211,8.211,0,0,0-3.337.679A7.841,7.841,0,0,0,78.94,3.631,8.706,8.706,0,0,0,77.18,6.588a10.76,10.76,0,0,0-.631,3.745,10.538,10.538,0,0,0,.6,3.632,8.291,8.291,0,0,0,1.776,2.906,7.74,7.74,0,0,0,2.709,1.865,8.873,8.873,0,0,0,3.41.633,11.77,11.77,0,0,0,3.441-.577,9.02,9.02,0,0,0,3.386-1.914v.708A16.711,16.711,0,0,1,88.469,19.5a10.614,10.614,0,0,1-3.852.606,11.863,11.863,0,0,1-4.443-.8,10.136,10.136,0,0,1-3.392-2.167,9.361,9.361,0,0,1-2.1-3.068,8.98,8.98,0,0,1-.708-3.514A9.208,9.208,0,0,1,75.459,5.5a10.585,10.585,0,0,1,4.012-3.692,11.466,11.466,0,0,1,5.5-1.357,16.868,16.868,0,0,1,3.9.491l1.456.369a4.457,4.457,0,0,0,.708.075,1.285,1.285,0,0,0,.73-.147A.939.939,0,0,0,92.041.72h.238Z" transform="translate(90.262 0.556)" fill="#fff"/><path d="M85.6.906V.693H97.875V3.624h-.2q0-2.361-3.47-2.36H89.925V9.727H93.7a5.681,5.681,0,0,0,2-.329,1.606,1.606,0,0,0,1.006-1.5h.211v4.22h-.211a2.2,2.2,0,0,0-.471-1.106,1.759,1.759,0,0,0-1.3-.639,7.569,7.569,0,0,0-1.05-.075H89.925V16.9a2.5,2.5,0,0,0,.315,1.29c.209.362.7.542,1.459.542h3.068a4.842,4.842,0,0,0,1.821-.291,2.738,2.738,0,0,0,1.126-.806,4.731,4.731,0,0,0,.693-1.252h.2L97.893,19.3H85.618v-.2h.28a2.124,2.124,0,0,0,1.288-.473,1.837,1.837,0,0,0,.628-1.567V3.031a2.612,2.612,0,0,0-.424-1.492A1.674,1.674,0,0,0,85.9.906Z" transform="translate(104.447 0.845)" fill="#fff"/><path d="M105.465,4.49h-.222a3.9,3.9,0,0,0-1.31-2.36A4.176,4.176,0,0,0,101,1.113a4.328,4.328,0,0,0-2.114.515,3.613,3.613,0,0,0-1.428,1.379,3.935,3.935,0,0,0-.5,2,3.746,3.746,0,0,0,.3,1.547,3.408,3.408,0,0,0,.886,1.194,7.847,7.847,0,0,0,1.385.964q.8.45,2.154,1.13a16.175,16.175,0,0,1,3.526,2.245,3.836,3.836,0,0,1,1.268,3.046,4.35,4.35,0,0,1-.677,2.293,5.046,5.046,0,0,1-2.051,1.814,7.373,7.373,0,0,1-3.4.708,9.251,9.251,0,0,1-2.251-.238,12.56,12.56,0,0,1-1.985-.686,2.431,2.431,0,0,0-.573-.129.391.391,0,0,0-.386.189,5.331,5.331,0,0,0-.235.821h-.235V15.231h.235a5.173,5.173,0,0,0,1.956,3.095,5.875,5.875,0,0,0,3.541,1.048,5.133,5.133,0,0,0,2.511-.528,3.026,3.026,0,0,0,1.308-1.288,3.475,3.475,0,0,0,.364-1.519,3.346,3.346,0,0,0-1.055-2.558,13.4,13.4,0,0,0-3.233-2.029q-1.482-.733-2.194-1.137a8.754,8.754,0,0,1-1.448-1.05,4.791,4.791,0,0,1-1.181-1.523,4.452,4.452,0,0,1-.433-2.016,4.6,4.6,0,0,1,.768-2.513,5.509,5.509,0,0,1,2.182-1.927,6.913,6.913,0,0,1,3.2-.726A10.016,10.016,0,0,1,104,.975a1.463,1.463,0,0,0,.6.1c.306,0,.517-.189.631-.571h.222Z" transform="translate(115.533 0.618)" fill="#fff"/><path d="M81.474,16.767h1.463v3.459a4.463,4.463,0,0,1-1.541.841,6.072,6.072,0,0,1-1.869.3,5.237,5.237,0,0,1-2.5-.584,4.463,4.463,0,0,1-.275-7.766c.082-.053.167-.1.251-.144a5.084,5.084,0,0,1,2.46-.586,4.524,4.524,0,0,1,3.57,1.385l-.966.975A3.412,3.412,0,0,0,79.5,13.583,3.473,3.473,0,0,0,77.788,14a3.052,3.052,0,0,0-1.179,1.154,3.47,3.47,0,0,0,0,3.332,3.036,3.036,0,0,0,1.2,1.161,3.575,3.575,0,0,0,1.734.42,3.646,3.646,0,0,0,1.934-.5Z" transform="translate(91.047 14.985)" fill="#fff"/><path d="M86.209,21.185l-1.887-2.646a3.549,3.549,0,0,1-.406.016h-2.1v2.631H80.3v-8.85h3.61a4.257,4.257,0,0,1,2.773.824,2.793,2.793,0,0,1,1,2.291,2.9,2.9,0,0,1-.506,1.727,3.037,3.037,0,0,1-1.441,1.077l2.1,2.926Zm-.646-4.349a1.906,1.906,0,0,0,.084-2.689l-.084-.084a2.741,2.741,0,0,0-1.752-.473H81.8v3.739h2.011a2.794,2.794,0,0,0,1.752-.493" transform="translate(97.979 15.05)" fill="#fff"/><path d="M87.4,20.782a4.366,4.366,0,0,1-1.73-1.625,4.67,4.67,0,0,1,0-4.66,4.366,4.366,0,0,1,1.73-1.625,5.424,5.424,0,0,1,4.931,0,4.484,4.484,0,0,1,0,7.91,5.423,5.423,0,0,1-4.931,0m4.143-1.134a3.1,3.1,0,0,0,1.181-1.154,3.47,3.47,0,0,0,0-3.332,3.1,3.1,0,0,0-1.181-1.154,3.58,3.58,0,0,0-3.364,0A3.1,3.1,0,0,0,87,15.161a3.446,3.446,0,0,0,0,3.332,3.1,3.1,0,0,0,1.181,1.154,3.58,3.58,0,0,0,3.364,0" transform="translate(103.768 14.982)" fill="#fff"/><path d="M92.061,20.28a3.889,3.889,0,0,1-1.03-2.882V12.334h1.5v5.031a2.826,2.826,0,0,0,.608,1.965A2.3,2.3,0,0,0,94.916,20a2.265,2.265,0,0,0,1.769-.668,2.806,2.806,0,0,0,.615-1.965V12.334h1.481v5.075a3.9,3.9,0,0,1-1.03,2.882,4.433,4.433,0,0,1-5.69-.011" transform="translate(111.071 15.049)" fill="#fff"/><path d="M102.934,13.161a2.8,2.8,0,0,1,1.012,2.291,2.813,2.813,0,0,1-1.012,2.307,4.292,4.292,0,0,1-2.773.83h-2.1v2.6h-1.51v-8.85h3.614a4.27,4.27,0,0,1,2.773.826m-1.115,3.677a1.906,1.906,0,0,0,.084-2.689l-.084-.084a2.748,2.748,0,0,0-1.754-.473H98.057V17.33h2.009a2.747,2.747,0,0,0,1.754-.5Z" transform="translate(117.802 15.05)" fill="#fff"/></g></svg>