<?xml version="1.0" encoding="UTF-8"?>
<svg id="Calque_1" xmlns="http://www.w3.org/2000/svg" version="1.1" viewBox="0 0 306.8 83">
  <!-- Generator: Adobe Illustrator 29.1.0, SVG Export Plug-In . SVG Version: 2.1.0 Build 142)  -->
  <defs>
    <style>
      .st0 {
        fill: #fff;
        isolation: isolate;
        opacity: .2;
      }
    </style>
  </defs>
  <path class="st0" d="M1.6,74.8c-.5-.2-1.1-.3-1.6-.5v-1.5c.7.2,1.4.4,2,.6,6.1,1.8,8.8,2.7,18.5,8.6.5.3,1.1.6,1.6.9h-2.8c-9.2-5.6-11.9-6.4-17.8-8.2h0ZM20.6,77c-1-.3-2-.7-3.1-1-6.4-2.1-8.7-4.7-11.7-8-1.2-1.3-2.3-2.6-3.9-4.1C1.3,63.3.6,62.8,0,62.2v-3.1c1.3.9,2.5,1.8,3.6,2.9,1.4,1.3,2.8,2.8,4.1,4.2,2.8,3.1,4.9,5.4,10.6,7.3,1,.3,2,.7,3.1,1,7.4,2.2,14.7,5,21.6,8.4h-5.9c-5.4-2.3-10.9-4.3-16.5-6h0ZM3.3,55c-1-.9-2.1-1.8-3.3-2.6v-1.3c1.4,1,2.7,2,4,3.1,10,8.9,33.2,23.8,48.2,27.8,15,4,2.9.7,4.2,1h-4.6c-15.1-4.1-38.4-19-48.5-28h0ZM12.2,47.8c-1.4-2.5-5-4.2-8.8-6-1.1-.5-2.2-1.1-3.3-1.6v-1.6c1.3.7,2.6,1.3,3.9,2,4,1.9,7.8,3.7,9.4,6.6,2.8,4.8,19.6,22.9,42.3,27,1.8.3,3.5.6,5.2,1,19.4,3.6,32.2,6,42.4-4.7,7.1-7.4,21.7-3.8,33.5-.9,7.3,1.8,14.2,3.5,16.4,1.7,2.3-1.9,5-6.8,7.9-11.9,5.1-9.1,10.3-18.5,16.1-18.5,8.8,0,16.4-7.3,23.3-15,3.5-3.9,7.1-4.2,10.6-4.5,4.4-.3,9-.7,14-8.6,2.3-3.7,5.2-6.9,8.5-9.6,1.1-.8,2.1-1.8,3-2.9h1.7c-1,1.6-2.2,2.9-3.7,4-3.2,2.6-6,5.8-8.3,9.3-5.4,8.5-10.6,8.9-15.1,9.2-3.4.3-6.6.5-9.7,4-7.1,8-15,15.4-24.4,15.5-5,0-10.4,9.9-14.9,17.8-3,5.3-5.8,10.3-8.2,12.3-2.8,2.3-9.3.7-17.7-1.4-11.4-2.8-25.6-6.3-32.2.5-10.7,11.2-24.6,8.6-43.7,5.1-1.7-.3-3.4-.6-5.2-1-1.5-.3-3-.6-4.5-1-19.6-5.3-35.3-20.6-38.8-26.7h.3ZM172.4,57.5c5.2-3.8,10.6-7.4,16.2-10.6,7.5-4.5,14.5-8.7,17.4-12.6,2.2-2.9,7.2-3.6,13-4.4,8.5-1.3,18.2-2.7,20.5-11.3C241.3,12.2,243.8,5.9,246.9,0h1.2c-3.2,6-5.7,12.3-7.5,18.9-2.5,9.3-12.5,10.8-21.4,12.1-5.4.8-10.4,1.5-12.4,4-3,4-10.2,8.3-17.7,12.8-5.5,3.2-10.9,6.7-16,10.5-6.1,4.8-9.6,15-12.5,24.6h-1.1c3-9.9,6.5-20.4,13-25.5h-.1ZM176.9,77.6c2.2-8.6,3.7-14.3,12.5-18,4.3-1.8,7.5-4.8,10.5-7.7,5.1-4.8,10.3-9.9,21.1-9.2,11.7.8,16-4.9,21.9-12.7,2.1-2.9,4.4-5.7,6.8-8.4,5-5.4,12.2-8.8,18.6-11.8,6.8-3.2,12.7-6,13.3-9.9h2.5c-.6,5.4-7.2,8.5-14.8,12.1-6.2,2.9-13.2,6.2-17.8,11.2-2.4,2.6-4.6,5.3-6.6,8.2-5.9,7.8-10.9,14.5-24,13.7-9.7-.6-14.3,3.8-19.2,8.5-3.2,3-6.5,6.2-11.2,8.2-7.7,3.2-8.9,7.9-11.1,16.4-.4,1.5-.8,3.1-1.3,4.8h-2.6c.6-1.9,1-3.7,1.5-5.4h0ZM216.8,56.2c17.7-2.9,27.7-9.9,35.7-15.6,6.1-4.3,11.3-8,18.1-8.5,14.5-1.2,27-3.7,32.2-23s1.7-5.8,2.6-9h1.5c-1,3.4-2,6.6-2.7,9.4-2.4,9.1-6.7,15.3-12.9,19-5.9,3.5-13.4,4.5-20.5,5-6.4.5-11.2,3.9-17.4,8.3-8.1,5.8-18.3,12.9-36.3,15.9-17.6,2.9-24.9,13.3-29.5,25.4h-1.5c4.7-12.7,12.2-23.8,30.8-26.8h-.1Z"/>
</svg>